<svg width="1024" height="1024" viewBox="0 0 1024 1024" fill="none" xmlns="http://www.w3.org/2000/svg">
<rect width="1024" height="1024" rx="225" fill="url(#paint0_radial_4_2)"/>
<path d="M475.2 313L473.76 344.68C466.72 345 460.48 345.96 455.04 347.56C449.92 349.16 445.76 352.84 442.56 358.6C439.68 364.04 437.92 373.32 437.28 386.44L430.08 527.08C428.48 557.8 423.36 582.76 414.72 601.96C406.08 620.84 394.24 634.76 379.2 643.72C364.16 652.36 345.76 656.68 324 656.68C311.52 656.68 300.16 654.44 289.92 649.96C280 645.48 272.16 639.4 266.4 631.72C260.64 624.04 258.08 615.24 258.72 605.32C259.36 595.08 262.56 585.96 268.32 577.96C274.4 569.96 282.88 565.8 293.76 565.48C305.92 564.84 314.4 567.88 319.2 574.6C324 581 326.4 588.36 326.4 596.68C326.4 599.24 325.92 602.12 324.96 605.32C324.32 608.52 323.2 611.56 321.6 614.44C322.88 617.64 325.12 619.72 328.32 620.68C331.52 621.64 333.92 622.12 335.52 622.12C340.32 622.12 344.32 620.84 347.52 618.28C350.72 615.72 353.28 611.72 355.2 606.28C357.12 600.52 358.24 593.16 358.56 584.2L368.64 391.72C369.28 383.08 369.92 374.76 370.56 366.76C371.52 358.76 372.32 352.68 372.96 348.52C369.76 348.52 365.44 348.68 360 349C354.88 349 349.92 349.16 345.12 349.48C340.32 349.48 336.8 349.64 334.56 349.96L336.48 313H475.2ZM484.55 649L486.47 617.32C493.51 617 499.59 616.04 504.71 614.44C509.83 612.84 513.83 609.16 516.71 603.4C519.91 597.64 521.83 588.36 522.47 575.56L532.07 391.72C532.71 383.08 533.35 374.76 533.99 366.76C534.95 358.76 535.75 352.68 536.39 348.52C531.27 348.84 524.87 349.16 517.19 349.48C509.51 349.48 503.91 349.64 500.39 349.96L502.31 313H638.63L637.19 344.68C630.15 345 623.91 345.96 618.47 347.56C613.35 349.16 609.19 352.84 605.99 358.6C603.11 364.04 601.35 373.32 600.71 386.44L591.11 570.28C590.79 578.92 590.15 587.08 589.19 594.76C588.55 602.44 587.91 608.36 587.27 612.52H651.59C670.47 612.52 685.67 605.96 697.19 592.84C708.71 579.72 715.11 560.04 716.39 533.8H748.07L739.43 649H484.55Z" fill="white"/>
<defs>
<radialGradient id="paint0_radial_4_2" cx="0" cy="0" r="1" gradientUnits="userSpaceOnUse" gradientTransform="scale(512)">
<stop stop-color="#262626"/>
<stop offset="1" stop-color="#050505"/>
</radialGradient>
</defs>
</svg>
