<svg width="1024" height="1024" viewBox="0 0 1024 1024" fill="none" xmlns="http://www.w3.org/2000/svg">
<rect width="1024" height="1024" rx="225" fill="url(#paint0_radial_4_5)"/>
<path d="M475.7 352L474.26 383.68C467.22 384 460.98 384.96 455.54 386.56C450.42 388.16 446.26 391.84 443.06 397.6C440.18 403.04 438.42 412.32 437.78 425.44L430.58 566.08C428.98 596.8 423.86 621.76 415.22 640.96C406.58 659.84 394.74 673.76 379.7 682.72C364.66 691.36 346.26 695.68 324.5 695.68C312.02 695.68 300.66 693.44 290.42 688.96C280.5 684.48 272.66 678.4 266.9 670.72C261.14 663.04 258.58 654.24 259.22 644.32C259.86 634.08 263.06 624.96 268.82 616.96C274.9 608.96 283.38 604.8 294.26 604.48C306.42 603.84 314.9 606.88 319.7 613.6C324.5 620 326.9 627.36 326.9 635.68C326.9 638.24 326.42 641.12 325.46 644.32C324.82 647.52 323.7 650.56 322.1 653.44C323.38 656.64 325.62 658.72 328.82 659.68C332.02 660.64 334.42 661.12 336.02 661.12C340.82 661.12 344.82 659.84 348.02 657.28C351.22 654.72 353.78 650.72 355.7 645.28C357.62 639.52 358.74 632.16 359.06 623.2L369.14 430.72C369.78 422.08 370.42 413.76 371.06 405.76C372.02 397.76 372.82 391.68 373.46 387.52C370.26 387.52 365.94 387.68 360.5 388C355.38 388 350.42 388.16 345.62 388.48C340.82 388.48 337.3 388.64 335.06 388.96L336.98 352H475.7ZM485.05 688L486.97 656.32C494.01 656 500.09 655.04 505.21 653.44C510.33 651.84 514.33 648.16 517.21 642.4C520.41 636.64 522.33 627.36 522.97 614.56L532.57 430.72C533.21 422.08 533.85 413.76 534.49 405.76C535.45 397.76 536.25 391.68 536.89 387.52C531.77 387.84 525.37 388.16 517.69 388.48C510.01 388.48 504.41 388.64 500.89 388.96L502.81 352H639.13L637.69 383.68C630.65 384 624.41 384.96 618.97 386.56C613.85 388.16 609.69 391.84 606.49 397.6C603.61 403.04 601.85 412.32 601.21 425.44L591.61 609.28C591.29 617.92 590.65 626.08 589.69 633.76C589.05 641.44 588.41 647.36 587.77 651.52H652.09C670.97 651.52 686.17 644.96 697.69 631.84C709.21 618.72 715.61 599.04 716.89 572.8H748.57L739.93 688H485.05Z" fill="#0D0D0D"/>
<defs>
<radialGradient id="paint0_radial_4_5" cx="0" cy="0" r="1" gradientUnits="userSpaceOnUse" gradientTransform="scale(512)">
<stop stop-color="white"/>
<stop offset="1" stop-color="#E0E0E0"/>
</radialGradient>
</defs>
</svg>
