<svg width="491" height="344" viewBox="0 0 491 344" fill="none" xmlns="http://www.w3.org/2000/svg">
<path d="M217.44 7.62939e-06L216 31.68C208.96 32 202.72 32.96 197.28 34.56C192.16 36.16 188 39.84 184.8 45.6C181.92 51.04 180.16 60.32 179.52 73.44L172.32 214.08C170.72 244.8 165.6 269.76 156.96 288.96C148.32 307.84 136.48 321.76 121.44 330.72C106.4 339.36 88 343.68 66.24 343.68C53.76 343.68 42.4 341.44 32.16 336.96C22.24 332.48 14.4 326.4 8.63999 318.72C2.87999 311.04 0.31999 302.24 0.95999 292.32C1.59999 282.08 4.79999 272.96 10.56 264.96C16.64 256.96 25.12 252.8 36 252.48C48.16 251.84 56.64 254.88 61.44 261.6C66.24 268 68.64 275.36 68.64 283.68C68.64 286.24 68.16 289.12 67.2 292.32C66.56 295.52 65.44 298.56 63.84 301.44C65.12 304.64 67.36 306.72 70.56 307.68C73.76 308.64 76.16 309.12 77.76 309.12C82.56 309.12 86.56 307.84 89.76 305.28C92.96 302.72 95.52 298.72 97.44 293.28C99.36 287.52 100.48 280.16 100.8 271.2L110.88 78.72C111.52 70.08 112.16 61.76 112.8 53.76C113.76 45.76 114.56 39.68 115.2 35.52C112 35.52 107.68 35.68 102.24 36C97.12 36 92.16 36.16 87.36 36.48C82.56 36.48 79.04 36.64 76.8 36.96L78.72 7.62939e-06H217.44ZM226.79 336L228.71 304.32C235.75 304 241.83 303.04 246.95 301.44C252.07 299.84 256.07 296.16 258.95 290.4C262.15 284.64 264.07 275.36 264.71 262.56L274.31 78.72C274.95 70.08 275.59 61.76 276.23 53.76C277.19 45.76 277.99 39.68 278.63 35.52C273.51 35.84 267.11 36.16 259.43 36.48C251.75 36.48 246.15 36.64 242.63 36.96L244.55 7.62939e-06H380.87L379.43 31.68C372.39 32 366.15 32.96 360.71 34.56C355.59 36.16 351.43 39.84 348.23 45.6C345.35 51.04 343.59 60.32 342.95 73.44L333.35 257.28C333.03 265.92 332.39 274.08 331.43 281.76C330.79 289.44 330.15 295.36 329.51 299.52H393.83C412.71 299.52 427.91 292.96 439.43 279.84C450.95 266.72 457.35 247.04 458.63 220.8H490.31L481.67 336H226.79Z" fill="#0D0D0D"/>
</svg>
