<svg width="1024" height="1024" viewBox="0 0 1024 1024" fill="none" xmlns="http://www.w3.org/2000/svg">
<rect width="1024" height="1024" rx="225" fill="url(#paint0_radial_20_4)"/>
<path d="M470.7 332L469.26 363.68C462.22 364 455.98 364.96 450.54 366.56C445.42 368.16 441.26 371.84 438.06 377.6C435.18 383.04 433.42 392.32 432.78 405.44L425.58 546.08C423.98 576.8 418.86 601.76 410.22 620.96C401.58 639.84 389.74 653.76 374.7 662.72C359.66 671.36 341.26 675.68 319.5 675.68C307.02 675.68 295.66 673.44 285.42 668.96C275.5 664.48 267.66 658.4 261.9 650.72C256.14 643.04 253.58 634.24 254.22 624.32C254.86 614.08 258.06 604.96 263.82 596.96C269.9 588.96 278.38 584.8 289.26 584.48C301.42 583.84 309.9 586.88 314.7 593.6C319.5 600 321.9 607.36 321.9 615.68C321.9 618.24 321.42 621.12 320.46 624.32C319.82 627.52 318.7 630.56 317.1 633.44C318.38 636.64 320.62 638.72 323.82 639.68C327.02 640.64 329.42 641.12 331.02 641.12C335.82 641.12 339.82 639.84 343.02 637.28C346.22 634.72 348.78 630.72 350.7 625.28C352.62 619.52 353.74 612.16 354.06 603.2L364.14 410.72C364.78 402.08 365.42 393.76 366.06 385.76C367.02 377.76 367.82 371.68 368.46 367.52C365.26 367.52 360.94 367.68 355.5 368C350.38 368 345.42 368.16 340.62 368.48C335.82 368.48 332.3 368.64 330.06 368.96L331.98 332H470.7ZM490.05 668L491.97 636.32C499.01 636 505.09 635.04 510.21 633.44C515.33 631.84 519.33 628.16 522.21 622.4C525.41 616.64 527.33 607.36 527.97 594.56L537.57 410.72C538.21 402.08 538.85 393.76 539.49 385.76C540.45 377.76 541.25 371.68 541.89 367.52C536.77 367.84 530.37 368.16 522.69 368.48C515.01 368.48 509.41 368.64 505.89 368.96L507.81 332H644.13L642.69 363.68C635.65 364 629.41 364.96 623.97 366.56C618.85 368.16 614.69 371.84 611.49 377.6C608.61 383.04 606.85 392.32 606.21 405.44L596.61 589.28C596.29 597.92 595.65 606.08 594.69 613.76C594.05 621.44 593.41 627.36 592.77 631.52H657.09C675.97 631.52 691.17 624.96 702.69 611.84C714.21 598.72 720.61 579.04 721.89 552.8H753.57L744.93 668H490.05Z" fill="white"/>
<defs>
<radialGradient id="paint0_radial_20_4" cx="0" cy="0" r="1" gradientUnits="userSpaceOnUse" gradientTransform="scale(512)">
<stop stop-color="#2E9E99"/>
<stop offset="1" stop-color="#0D4552"/>
</radialGradient>
</defs>
</svg>
